/* XPM */
static char *a7376bf37ee649f79349f2c3b52cab1fUQjYGVrZ19j8m2sc[] = {
/* columns rows colors chars-per-pixel */
"64 64 256 2 ",
"   c black",
".  c #0000A8",
"X  c #00A800",
"o  c #00A8A8",
"O  c #A80000",
"+  c #A800A8",
"@  c #A85400",
"#  c gray66",
"$  c gray33",
"%  c #5454FC",
"&  c #54FC54",
"*  c #54FCFC",
"=  c #FC5454",
"-  c #FC54FC",
";  c #FCFC54",
":  c gray99",
">  c #ECECEC",
",  c gainsboro",
"<  c #D0D0D0",
"1  c #C0C0C0",
"2  c #B4B4B4",
"3  c gray66",
"4  c #989898",
"5  c gray55",
"6  c #7C7C7C",
"7  c gray44",
"8  c #646464",
"9  c gray33",
"0  c #484848",
"q  c gray22",
"w  c #2C2C2C",
"e  c #202020",
"r  c #FC0000",
"t  c #EC0000",
"y  c #E00000",
"u  c #D40000",
"i  c #C80000",
"p  c #BC0000",
"a  c #B00000",
"s  c #A40000",
"d  c #980000",
"f  c #880000",
"g  c #7C0000",
"h  c #700000",
"j  c #640000",
"k  c #580000",
"l  c #4C0000",
"z  c #400000",
"x  c #FCD8D8",
"c  c #FCB8B8",
"v  c #FC9C9C",
"b  c #FC7C7C",
"n  c #FC5C5C",
"m  c #FC4040",
"M  c #FC2020",
"N  c #FC0000",
"B  c #FCA85C",
"V  c #FC9840",
"C  c #FC8820",
"Z  c #FC7800",
"A  c #E46C00",
"S  c #CC6000",
"D  c #B45400",
"F  c #9C4C00",
"G  c #FCFCD8",
"H  c #FCFCB8",
"J  c #FCFC9C",
"K  c #FCFC7C",
"L  c #FCF85C",
"P  c #FCF440",
"I  c #FCF420",
"U  c #FCF400",
"Y  c #E4D800",
"T  c #CCC400",
"R  c #B4AC00",
"E  c #9C9C00",
"W  c #848400",
"Q  c #706C00",
"!  c #585400",
"~  c #404000",
"^  c #D0FC5C",
"/  c #C4FC40",
"(  c #B4FC20",
")  c #A0FC00",
"_  c #90E400",
"`  c #80CC00",
"'  c #74B400",
"]  c #609C00",
"[  c #D8FCD8",
"{  c #BCFCB8",
"}  c #9CFC9C",
"|  c #80FC7C",
" . c #60FC5C",
".. c #40FC40",
"X. c #20FC20",
"o. c #00FC00",
"O. c #00FC00",
"+. c #00EC00",
"@. c #00E000",
"#. c #00D400",
"$. c #04C800",
"%. c #04BC00",
"&. c #04B000",
"*. c #04A400",
"=. c #049800",
"-. c #048800",
";. c #047C00",
":. c #047000",
">. c #046400",
",. c #045800",
"<. c #044C00",
"1. c #044000",
"2. c #D8FCFC",
"3. c #B8FCFC",
"4. c #9CFCFC",
"5. c #7CFCF8",
"6. c #5CFCFC",
"7. c #40FCFC",
"8. c #20FCFC",
"9. c #00FCFC",
"0. c #00E4E4",
"q. c #00CCCC",
"w. c #00B4B4",
"e. c #009C9C",
"r. c #008484",
"t. c #007070",
"y. c #005858",
"u. c #004040",
"i. c #5CBCFC",
"p. c #40B0FC",
"a. c #20A8FC",
"s. c #009CFC",
"d. c #008CE4",
"f. c #007CCC",
"g. c #006CB4",
"h. c #005C9C",
"j. c #D8D8FC",
"k. c #B8BCFC",
"l. c #9C9CFC",
"z. c #7C80FC",
"x. c #5C60FC",
"c. c #4040FC",
"v. c #2024FC",
"b. c #0004FC",
"n. c #0000FC",
"m. c #0000EC",
"M. c #0000E0",
"N. c #0000D4",
"B. c #0000C8",
"V. c #0000BC",
"C. c #0000B0",
"Z. c #0000A4",
"A. c #000098",
"S. c #000088",
"D. c #00007C",
"F. c #000070",
"G. c #000064",
"H. c #000058",
"J. c #00004C",
"K. c #000040",
"L. c #282828",
"P. c #FCE034",
"I. c #FCD424",
"U. c #FCCC18",
"Y. c #FCC008",
"T. c #FCB400",
"R. c #B420FC",
"E. c #A800FC",
"W. c #9800E4",
"Q. c #8000CC",
"!. c #7400B4",
"~. c #60009C",
"^. c #500084",
"/. c #440070",
"(. c #340058",
"). c #280040",
"_. c #FCD8FC",
"`. c #FCB8FC",
"'. c #FC9CFC",
"]. c #FC7CFC",
"[. c #FC5CFC",
"{. c #FC40FC",
"}. c #FC20FC",
"|. c #FC00FC",
" X c #E000E4",
".X c #C800CC",
"XX c #B400B4",
"oX c #9C009C",
"OX c #840084",
"+X c #6C0070",
"@X c #580058",
"#X c #400040",
"$X c #FCE8DC",
"%X c #FCE0D0",
"&X c #FCD8C4",
"*X c #FCD4BC",
"=X c #FCCCB0",
"-X c #FCC4A4",
";X c #FCBC9C",
":X c #FCB890",
">X c #FCB080",
",X c #FCA470",
"<X c #FC9C60",
"1X c #F0945C",
"2X c #E88C58",
"3X c #DC8854",
"4X c #D08050",
"5X c #C87C4C",
"6X c #BC7848",
"7X c #B47044",
"8X c #A86840",
"9X c #A0643C",
"0X c #9C6038",
"qX c #905C34",
"wX c #885830",
"eX c #80502C",
"rX c #744C28",
"tX c #6C4824",
"yX c #5C4020",
"uX c #543C1C",
"iX c #483818",
"pX c #403018",
"aX c #382C14",
"sX c #28200C",
"dX c #600064",
"fX c #006464",
"gX c #006060",
"hX c #00001C",
"jX c #00002C",
"kX c #302410",
"lX c #480048",
"zX c #500050",
"xX c #000034",
"cX c gray11",
"vX c #4C4C4C",
"bX c gray36",
"nX c gray25",
"mX c gray19",
"MX c #343434",
"NX c #D8F4F4",
"BX c #B8E8E8",
"VX c #9CDCDC",
"CX c #74C8C8",
"ZX c #48C0C0",
"AX c #20B4B4",
"SX c #20B0B0",
"DX c #00A4A4",
"FX c #009898",
"GX c #008C8C",
"HX c #008484",
"JX c #007C7C",
"KX c #007878",
"LX c #007474",
"PX c #007070",
"IX c #006C6C",
"UX c #980088",
/* pixels */
"UXUXUXUXUXUXUXUXUXUXUXUXUXUXUXUXUXUXUXUXUXUXUXUXUXUXUXUXUXUXUXUXUXUXUXUXUXUXUXUXUXUXUXUXUXUXUXUXUXUXUXUXUXUXUXUXUXUXUXUXUXUXUXUX",
"UXUXUXUXUXUXUXUXUXUXUXUXUXUXUXUXUXUXUXUXUXUXUXUXUXUXUX1.UXUXUXL.1.UXUXUXUXUXUXUXUXUXUXUXUXUXUXUXUXUXUXUXUXUXUXUXUXUXUXUXUXUXUXUX",
"UXUXUXUXUXUXUXUXUXUXUXUXUXUXUXUXUXUXUXUXUXUXUXUXUX1.UXUXe 1.e UXe L.e L.L.UXUXL.UXUXUXUXUXUXUXUXUXUXUXUXUXUXUXUXUXUXUXUXUXUXUXUX",
"UXUXUXUXUXUXUXUXUXUXUXUXUXUXUXUXUXUXUXUXUX<.~ UXL.UX1.e 1.<.~ ~ UX1.L.e 1.UX1.1.L.UXUXUXUXUXUXUXUXUXUXUXUXUXUXUXUXUXUXUXUXUXUXUX",
"UXUXUXUXUXUXUXUXUXUXUXUXUXUXUXUXUXUXUXUXw w UX~ 1.1.<.<.<.1.e L.L.1.UX~ 1.L.UXL.e UXUXUXUXUXUXUXUXUXUXUXUXUXUXUXUXUXUXUXUXUXUXUX",
"UXUXUXUXUXUXUXUXUXUXUXUXUXUXUXUXUXUX1.w UXw <.<.UX1.1.UX<.e 1.<.<.<.<.e UXe e 1.e e UXUXUXUXUXUXUXUXUXUXUXUXUXUXUXUXUXUXUXUXUXUX",
"UXUXUXUXUXUXUXUXUXUXUXUXUXUXUXUX1.1.UXw ,.,.,.w <.1.<.e e w <.~ e <.e e e L.e L.e UX<.UXUXUXUXUXUXUXUXUXUXUXUXUXUXUXUXUXUXUXUXUX",
"UXUXUXUXUXUXUXUXUXUXUXUXUXUXUXUX1.1.UXUX<.1.<.1.~ <.,.<.e 1.1.<.<.w w e UXe e e 1.w 1.UXUXUXUXUXUXUXUXUXUXUXUXUXUXUXUXUXUXUXUXUX",
"UXUXUXUXUXUXUXUXUXUXUXUXUXUXUXUXw 1.<.1.1.1.<.e ,.<.w <.w e ~ ~ 1.e w ~ e 1.e e ~ UX1.e UXUXUXUXUXUXUXUXUXUXUXUXUXUXUXUXUXUXUXUX",
"UXUXUXUXUXUXUXUXUXUXUXUXUXUXUX1.w 1.UX1.1.1.,.,.,.,.w ~ <.e ~ e ~ w ~ ~ 1.e e L.e ~ 1.1.<.1.UXUXUXUXUXUXUXUXUXUXUXUXUXUXUXUXUXUX",
"UXUXUXUXUXUXUXUXUXUXUXUXUXUXUXUX1.1.e 1.w <.1.,.,.,.e 1.<.w ~ w 1.1.1.~ 1.e e L.1.~ L.UX1.e <.UXUXUXUXUXUXUXUXUXUXUXUXUXUXUXUXUX",
"UXUXUXUXUXUXUXUXUXUXUXUXUXUX1.UXw 1.1.<.w ,.~ <.e <.~ ,.1.w w w ~ w ~ ~ L.e e e iXe 1.e L.1.e UXUXUXUXUXUXUXUXUXUXUXUXUXUXUXUXUX",
"UXUXUXUXUXUXUXUXUXUXUXUXUXUX1.1.e 1.UX1.~ 1.w 1.,.~ ~ ~ w 1.1.w w w e e e e 1.e 1.e e 1.1.1.UXw UXUXUXUXUXUXUXUXUXUXUXUXUXUXUXUX",
"UXUXUXUXUXUXUXUXUXUXUXUXUXUXUXUXUXw w w UX~ ~ w ~ e ~ ~ 1.w aX1.1.1.1.e e L.e 1.iX1.e L.1.L.e UXe UXUXUXUXUXUXUXUXUXUXUXUXUXUXUX",
"UXUXUXUXUXUXUXUXUXUXUXUXUXUX1.w e 1.e w <.~ iX,.e ~ ,.w w ~ aX<.cXcXw 1.1.e e 1.1.e e L.e e cXUXUXUXUXUXUXUXUXUXUXUXUXUXUXUXUXUX",
"UXUXUXUXUXUXUXUXUXUXUXUXUXUXUXe 1.w e <.<.e iXaX~ w w cX<.w w aXcX1.w L.L.e L.e e e e e 1.e e 1.e UXUXUXUXUXUXUXUXUXUXUXUXUXUXUX",
"UXUXUXUXUXUXUXUXUXUXUXUXUX1.UXw 1.w w ~ <.<.w w aXw <.w cX~ aXaXw w L.~ e ~ e ~ e e ~ ~ e e e e UXe UXUXUXUXUXUXUXUXUXUXUXUXUXUX",
"UXUXUXUXUXUXUXUXUXUXUXUXUXw UXw w <.1.1.<.e 1.e aXw <.aXcXw w w cXw L.e e e kXe e ~ 1.L.e 1.e UXUXe UXUXUXUXUXUXUXUXUXUXUXUXUXUX",
"UXUXUXUXUXUXUXUXUXUXUXUXUX1.1.1.L.<.<.UX<.<.<.1.aXw kXaXw cX<.<.w cX1.e L.kXiXcX~ e e L.1.e 1.e UXL.<.UXUXUXUXUXUXUXUXUXUXUXUXUX",
"UXUXUXUXUXUXUXUXUXUXUXUXUXUX1.<.w 1.<.<.<.<.~ e iXaXw <.aX1.w <.e e e 1.kXiX~ cXcXe 1.1.~ 1.1.1.UXUXe UXUXUXUXUXUXUXUXUXUXUXUXUX",
"UXUXUXUXUXUXUXUXUXUXUXUX1.UXw w <.1.<.L.w 1.w ~ w 1.w ~ 1.<.e w w cXe e e ~ cXcXkX1.e e L.1.e L.e L.UX1.UXUXUXUXUXUXUXUXUXUXUXUX",
"UXUXUXUXUXUXUXUXUXUXUXUX1.$ UXw 1.w <.e <.~ e e w e 1.1.w <.e w e ~ w 1.w e e w L.~ iX~ e 1.1.1.UX1.e 1.UXUXUXUXUXUXUXUXUXUXUXUX",
"UXUXUXUXUXUXUXUXUXUXUXUXUX1.w w UX1.1.e ~ ~ ~ aXcX1.1.w e ~ 1.<.~ w e e e 1.e ~ iXe e 1.w e e 1.L.e w UXUXUXUXUXUXUXUXUXUXUXUXUX",
"UXUXUXUXUXUXUXUXUXUXUXUX1.UX1.w L.e ~ <.e e ,.aX~ ,.w w w kXw kXw w ~ aXcXe e 1.kXaXe cXe L.cX1.UXL.e 1.UXUXUXUXUXUXUXUXUXUXUXUX",
"UXUXUXUXUXUXUXUXUXUXUX1.w 1.1.1.1.e ,.,.w ~ w iXw e w ,.1.e w ~ w w 1.e e 1.e kXkXkXe e w e w e 1.1.1.UXUXUXUXUXUXUXUXUXUXUXUXUX",
"UXUXUXUXUXUXUXUXUXUX1.nX1.,.,.,.1.,.<.,.~ 1.1.,.,.e w w e ~ ~ e w 1.kXw e e iX1.1.cXcXe e w e e e e w 1.UXUXUXUXUXUXUXUXUXUXUXUX",
"UXUXUXUXUXUXUXUXUXUXUX1.~ 1.w 1.1.,.w <.~ w 1.L.iXiXaXcX,.w e w 1.aXkXw cXe kXe kXcXcXe 1.w e 1.e w UXe UXUXUXUXUXUXUXUXUXUXUXUX",
"UXUXUXUXUXUXUXUXUXUXnXnXe ,.~ ,.~ ~ ,.1.UX1.1.,.iXiXaX,.w w w ,.1.<.e 1.e e iXe cXw w w w cXe e e e 1.e L.UXUXUXUXUXUXUXUXUXUXUX",
"UXUXUXUXUXUXUXUXUXUX~ UX1.w ~ <.,.e ,.,.<.~ 1.,.1.1.1.iXw 1.1.w w e e e e 1.e cX1.w w L.e 1.w e e L.e e L.UXUXUXUXUXUXUXUXUXUXUX",
"UXUXUXUXUXUXUXUXUXUXUX1.1.1.1.,.<.~ w w L.1.1.1.,.~ 1.w w <.,.w e w 1.e 1.iXe w 1.iXw w kXe w 1.w e e 1.UXw UXUXUXUXUXUXUXUXUXUX",
"UXUXUXUXUXUXUXUX1.UXUX1.~ e 1.,.<.e 1.e 1.e L.~ L.L.w w ,.w L.e aX<.1.e 1.e 1.cXL.w e kXkXe w L.e e 1.e e w UXUXUXUXUXUXUXUXUXUX",
"UXUXUXUXUXUXUXUXUXw 1.1.1.w <.<.1.~ 1.iX,.~ 1.<.w ,.<.<.w w <.iXaXe w kXe w e w ~ w kXkXkXe e e e L.e L.e UXw UXUXUXUXUXUXUXUXUX",
"UXUXUXUXUXUXUX1.w UXe w ,.<.<.<.UX1.1.iXaXL.1.1.1.w 1.w iX<.<.w w <.kXe 1.w 1.e e w kXe e 1.L.e 1.L.UXe e UXUXUXUXUXUXUXUXUXUXUX",
"UXUXUXUXUXUXUX1.UX1.<.1.<.1.<.1.1.w w ~ aXaXaX<.1.w 1.1.w iX<.kXe w iXe e e 1.e w kXe e ~ e e e 1.e L.e L.UXUXUXUXUXUXUXUXUXUXUX",
"UXUXUXUXUXUXUXUX1.1.UX,.,.1.<.1.<.~ ~ ~ aXiXe aXe <.w <.~ w e aX<.w <.1.cX1.e aXe 1.e ~ e ~ L.e e UX1.1.e UXw UXUXUXUXUXUXUXUXUX",
"UXUXUXUXUXUXUX1.w UX,.1.,.,.1.<.~ ~ ~ e iXaX<.~ aX<.L.<.w e w e ~ w w 1.e 1.w e e e e e e e e e e e e L.1.w UXUXUXUXUXUXUXUXUXUX",
"UXUXUXUXUXUXUXUX1.UX,.,.1.,.1.<.<.e w e w e aXiXiXaXkXcX~ w w ~ aX~ 1.kXcX~ e 1.e ~ e e ~ e 1.e e 1.e L.UX1.L.UXUXUXUXUXUXUXUXUX",
"UXUXUXUXUXUXUX1.1.e UX,.,.1.1.~ ~ w e e e <.iXaXe <.<.kXcXe ~ w ~ ~ kXw 1.e kXkXcXe e iXe e e e 1.w L.L.e UXUXUXUXUXUXUXUXUXUXUX",
"UXUXUXUXUXUXUXUXUXUX,.1.UX<.UX~ ~ <.w e ,.w ~ w aXaX,.e iXw iXaXkXw <.w cXw <.w cX1.iXe 1.e 1.e e kXe e e w e UXUXUXUXUXUXUXUXUX",
"UXUXUXUXUXUXUXUX1.,.,.,.1.<.iXiX,.1.,.,.w ~ L.e e <.aXkX1.~ w aX~ kXw <.w e e e e cXaXaXe e 1.w e e e e e e e UXUXUXUXUXUXUXUXUX",
"UXUXUXUXUXUXUXUX,.1.UX<.1.~ <.~ <.w ,.,.w aX~ w 1.1.w iXkX1.,.aXw kX<.<.e e e e e e 1.e e e 1.1.1.e e e UXL.UXUXUXUXUXUXUXUXUXUX",
"UXUXUXUXUXUXUXnXUX1.1.,.1.w <.,.,.~ 1.~ aXe aXe ~ <.~ ,.w kXw ,.w <.cXw ~ <.w w 1.L.1.1.kXaX1.e e L.L.UXL.e UXUXUXUXUXUXUXUXUXUX",
"UXUXUXUXUXUXUXUX1.UX<.<.1.<.,.,.e w ,.e ,.~ e e ~ e ,.e e ,.w aXw e e w <.w w e e 1.kXkX1.aXkXe UXL.e e e L.UXUXUXUXUXUXUXUXUXUX",
"UXUXUXUXUXUXUXUX<.1.<.UX1.,.,.~ ,.~ 1.,.,.<.<.~ <.e ,.,.1.e aX,.,.w <.cXw ~ w cXaXe e cXe kXe kXcXUXL.e e UXe UXUXUXUXUXUXUXUXUX",
"UXUXUXUXUXUXUXUXUX1.1.UXe 1.,.1.w ,.<.,.e ~ e <.e 1.<.cX<.,.aXkX<.,.~ w w e cX~ kXkXcXe e kXcX1.e e UX1.e UXUXUXUXUXUXUXUXUXUXUX",
"UXUXUXUXUXUXUXUXUXUXUX1.e UX1.w w ~ e ,.e 1.~ <.1.e w cXw e w e 1.kXcXcXe <.cXe e ~ 1.e e e e w UXL.L.UXUXUXUXUXUXUXUXUXUXUXUXUX",
"UXUXUXUXUXUXUXUXUXnXUX1.UX1.,.UX~ 1.~ w <.<.e e iX<.<.e w e ,.e e e 1.e 1.e ~ ~ ~ e cXe e e ~ w L.e UXL.UXUXUXUXUXUXUXUXUXUXUXUX",
"UXUXUXUXUXUXUXUXUXUXnXUXnX1.UXUX1.e ~ 1.w w w 1.1.1.e kX<.iX<.w e 1.,.e ~ ~ cXcXe ~ e ~ e UXe UXe e e UXUXUXUXUXUXUXUXUXUXUXUXUX",
"UXUXUXUXUXUXUXUXUXUXUXUXUXUX~ ~ UX~ <.<.e <.1.1.1.e 1.<.<.e <.e e e 1.1.e ~ e kXe e ~ e e e 1.w e UXe UXUXUXUXUXUXUXUXUXUXUXUXUX",
"UXUXUXUXUXUXUXUXUXUXUXUXUXnXUXnXUXe ~ UXw w e L.1.e w e e e <.aX1.1.e 1.e e e ~ 1.e cXcXe e 1.e UXUXUXUXUXUXUXUXUXUXUXUXUXUXUXUX",
"UXUXUXUXUXUXUXUXUXUXUXUXUXUXUXUXUXe UX1.1.e e 1.1.e e UXiXe aXe e 1.kXkXe e e e e e UXe 1.e e UXUXUXUXUXUXUXUXUXUXUXUXUXUXUXUXUX",
"UXUXUXUXUXUXUXUXUXUXUXUXUXUXUXUXe nXUXe e 1.nX1.1.e UX1.1.iXe aX1.kX1.e kXe e L.UXe L.e 1.e UXUXUXUXUXUXUXUXUXUXUXUXUXUXUXUXUXUX",
"UXUXUXUXUXUXUXUXUXUXUXUXUXUXUXUXUXe 1.1.1.1.e nXUXnXe e e iXiXiXkX1.kXL.e e 1.e 1.e e e UXUXUXUXUXUXUXUXUXUXUXUXUXUXUXUXUXUXUXUX",
"UXUXUXUXUXUXUXUXUXUXUXUXUXUXUXUXUXUXUXe e 1.e 1.1.e 1.1.1.iXiX1.1.1.1.e e 1.UXcXe 1.e e UXUXUXUXUXUXUXUXUXUXUXUXUXUXUXUXUXUXUXUX",
"UXUXUXUXUXUXUXUXUXUXUXUXUXUXUXUXUXUXUXUXUXe 1.e UXUXUXe e 1.e 1.1.L.cXe e e UXe UX1.UXUXUXUXUXUXUXUXUXUXUXUXUXUXUXUXUXUXUXUXUXUX",
"UXUXUXUXUXUXUXUXUXUXUXUXUXUXUXUXUXUXUXUXUXUXUXUXUXUXUXUXUXe 1.e e 1.1.1.cXUXUXUXUXUXUXUXUXUXUXUXUXUXUXUXUXUXUXUXUXUXUXUXUXUXUXUX",
"UXUXUXUXUXUXUXUXUXUXUXUXUXUXUXUXUXUXUXUXUXUXUXUXUXUXUXUXUXiXL.iXaXcXcXcXcXUXUXUXUXUXUXUXUXUXUXUXUXUXUXUXUXUXUXUXUXUXUXUXUXUXUXUX",
"UXUXUXUXUXUXUXUXUXUXUXUXUXUXUXUXUXUXUXUXUXUXUXUXUXUXUXUXUXiXaXpXaXkXcXcXcXUXUXUXUXUXUXUXUXUXUXUXUXUXUXUXUXUXUXUXUXUXUXUXUXUXUXUX",
"UXUXUXUXUXUXUXUXUXUXUXUXUXUXUXUXUXUXUXUXUXUXUXUXUXUXUXUXiXiXaXiXaXkXsXcXcXcXUXUXUXUXUXUXUXUXUXUXUXUXUXUXUXUXUXUXUXUXUXUXUXUXUXUX",
"UXUXUXUXUXUXUXUXUXUXUXUXUXUXUXUXUXUXUXUXUXUXUXUXUXUXUXiXpXiXiXaXw kXsXcXcXcXUXUXUXUXUXUXUXUXUXUXUXUXUXUXUXUXUXUXUXUXUXUXUXUXUXUX",
"UXUXUXUXUXUXUXUXUXUXUXUXUXUXUXUXUXUXUXUXUXUXUXUXUXUXiXpXaXpXaXpXiXkXsXsXcXcXcXUXUXUXUXUXUXUXUXUXUXUXUXUXUXUXUXUXUXUXUXUXUXUXUXUX",
"UXUXUXUXUXUXUXUXUXUXUXUXUXUXUXUXUXUXUXUXUXUXUXUXiXiXpXaXiXpXaXiXkXkXkXsXsXcXcXe cXUXUXUXUXUXUXUXUXUXUXUXUXUXUXUXUXUXUXUXUXUXUXUX",
"UXUXUXUXUXUXUXUXUXUXUXUXUXUXUXUXUXUXUXUXUXUXUXiXiXaXaXiXpXaXaXiXkXkXkXkXsXsXcXe e cXUXUXUXUXUXUXUXUXUXUXUXUXUXUXUXUXUXUXUXUXUXUX",
"UXUXUXUXUXUXUXUXUXUXUXUXUXUXUXUXUXUXUXUXUXUXUXUXUXUXaXiXpXaXaXiXkXkXkXL.kXsXsXUXUXUXUXUXUXUXUXUXUXUXUXUXUXUXUXUXUXUXUXUXUXUXUXUX"
};
